<svg width="133" height="199" viewBox="0 0 133 199" fill="none" xmlns="http://www.w3.org/2000/svg">
<path d="M133 81C133 71.187 129.154 61.7759 122.309 54.8371C115.464 47.8982 106.18 44 96.5 44C86.8196 44 77.5357 47.8982 70.6906 54.837C63.8455 61.7759 60 71.187 60 81L96.5 81H133Z" fill="#E11E46"/>
<path fill-rule="evenodd" clip-rule="evenodd" d="M67 52.6711C66.4588 52.0425 65.8951 51.4308 65.3094 50.837C58.4644 43.8982 49.1804 40 39.5 40C38.0353 40 36.5797 40.0893 35.1401 40.2648C35.0474 39.1891 35 38.1001 35 37C35 16.5655 51.3416 0 71.5 0C91.6584 0 108 16.5655 108 37C108 38.8574 107.865 40.6829 107.604 42.4668C103.462 40.8514 99.0242 40 94.5 40C84.8196 40 75.5357 43.8982 68.6906 50.837C68.1049 51.4307 67.5412 52.0425 67 52.6711Z" fill="#66382F"/>
<path fill-rule="evenodd" clip-rule="evenodd" d="M62.3094 54.8371C62.8951 55.4307 63.4588 56.0425 64 56.6711C58.2156 63.3893 55 72.0266 55 81L36.5 81L0 81C0 71.187 3.84553 61.7759 10.6906 54.837C17.5357 47.8982 26.8196 44 36.5 44C46.1804 44 55.4643 47.8982 62.3094 54.8371Z" fill="#FFF0CF"/>
<rect x="110" y="78" width="7" height="16" rx="3.5" fill="#E11E46"/>
<path fill-rule="evenodd" clip-rule="evenodd" d="M108 84H66.5L0 84C2.6631e-06 100.311 7.00623 115.954 19.4774 127.487C30.0587 137.273 43.8387 143.42 58.5446 145.059C59.3442 148.55 59.7703 152.217 59.7703 156C59.7703 175.881 48.0012 192.574 32.1034 197.216V198.5H66.5H100.897V197.216C84.9988 192.574 73.2297 175.881 73.2297 156C73.2297 152.217 73.6558 148.55 74.4554 145.059C89.1613 143.42 102.941 137.273 113.523 127.487C125.994 115.954 133 100.311 133 84H119V90.5C119 93.5376 116.538 96 113.5 96C110.462 96 108 93.5376 108 90.5V84Z" fill="black"/>
</svg>
